<svg width="60" height="60" viewBox="0 0 60 60" fill="none" xmlns="http://www.w3.org/2000/svg">
<circle cx="30" cy="30" r="30" fill="url(#paint0_linear_5563_116904)"/>
<path d="M41.6742 35.132L43.3669 36.2129C43.4714 36.2794 43.5568 36.3719 43.6148 36.4813C43.6728 36.5907 43.7015 36.7133 43.6981 36.8371C43.6946 36.9608 43.6591 37.0816 43.5951 37.1876C43.531 37.2936 43.4406 37.3812 43.3326 37.4418L30.5606 44.6273C30.3341 44.7549 30.0771 44.8185 29.8173 44.8113C29.5574 44.804 29.3044 44.7261 29.0853 44.5861L16.7348 36.6981C16.6304 36.6316 16.545 36.5391 16.4869 36.4297C16.4289 36.3203 16.4002 36.1977 16.4037 36.0739C16.4071 35.9501 16.4426 35.8294 16.5067 35.7234C16.5707 35.6174 16.6612 35.5298 16.7692 35.4692L18.5197 34.4847L29.9027 41.755L41.6742 35.132ZM41.8624 28.4002L43.5552 29.481C43.6596 29.5476 43.745 29.6401 43.803 29.7495C43.8611 29.8589 43.8897 29.9815 43.8863 30.1052C43.8828 30.229 43.8473 30.3498 43.7833 30.4558C43.7192 30.5618 43.6288 30.6493 43.5208 30.71L29.9988 38.3175L16.923 29.9663C16.8186 29.8998 16.7332 29.8073 16.6751 29.6979C16.6171 29.5885 16.5884 29.4659 16.5919 29.3421C16.5954 29.2183 16.6308 29.0976 16.6949 28.9916C16.7589 28.8856 16.8494 28.798 16.9574 28.7374L18.7079 27.7529L30.0909 35.0232L41.8624 28.4002ZM31.3894 14.9329L43.7414 22.8209C43.8458 22.8874 43.9312 22.9799 43.9892 23.0893C44.0473 23.1987 44.076 23.3213 44.0725 23.4451C44.069 23.5688 44.0335 23.6896 43.9695 23.7956C43.9054 23.9016 43.815 23.9892 43.707 24.0498L30.185 31.6573L17.1092 23.3061C17.0048 23.2396 16.9194 23.1471 16.8614 23.0377C16.8033 22.9283 16.7746 22.8057 16.7781 22.6819C16.7816 22.5581 16.8171 22.4374 16.8811 22.3314C16.9452 22.2254 17.0356 22.1378 17.1436 22.0772L29.9156 14.8917C30.1421 14.764 30.399 14.7005 30.6589 14.7077C30.9188 14.715 31.1718 14.7928 31.3908 14.9329L31.3894 14.9329ZM30.5722 17.8098L21.6697 22.8187L30.2784 28.3172L39.1809 23.3083L30.5722 17.8098Z" fill="#EEF1FD"/>
<defs>
<linearGradient id="paint0_linear_5563_116904" x1="0" y1="0" x2="60" y2="60" gradientUnits="userSpaceOnUse">
<stop stop-color="#1FD848"/>
<stop offset="1" stop-color="#A81FD8"/>
</linearGradient>
</defs>
</svg>
